<svg xmlns="http://www.w3.org/2000/svg" viewBox="0 0 500 500">
<g transform="translate(0,500) scale(0.1,-0.1)">
<path d="M3014 3852 c-31 -22 -194 -274 -194 -301 0 -30 27 -50 49 -37 17 11
211 294 211 308 0 30 -40 48 -66 30z M2765 3101 c-122 -24 -225 -80 -347 -189 -134 -121 -237 -157 -424
-150 -84 3 -127 11 -188 32 -88 30 -105 27 -61 -10 170 -142 462 -138 666 8
26 18 78 61 117 94 173 152 374 187 622 107 101 -32 67 19 -50 75 -71 34 -81
36 -185 38 -60 2 -128 -1 -150 -5z M2040 2188 c-33 -46 -80 -111 -106 -146 -47 -64 -53 -96 -23 -115 28
-18 45 -1 148 146 102 147 111 163 89 185 -26 26 -49 11 -108 -70z" fill="#f02a8c"/>
<path d="M2395 4063 c-267 -35 -521 -271 -580 -538 -24 -107 -17 -275 15 -369
26 -76 95 -188 153 -250 36 -38 38 -39 89 -33 74 9 75 18 13 68 -236 187 -263
578 -58 821 134 158 386 251 581 214 82 -16 198 -56 237 -82 59 -41 115 15 63
63 -86 78 -335 130 -513 106z M2385 3727 c-170 -56 -265 -180 -265 -343 0 -141 70 -252 199 -313
64 -30 82 -30 114 -3 26 23 22 28 -53 68 -86 45 -140 103 -163 176 -21 68 -21
82 -1 144 35 104 110 167 232 191 74 16 79 15 152 -6 121 -36 129 -37 139 -10
12 35 4 47 -53 76 -61 32 -230 43 -301 20z M2824 2908 c-7 -11 7 -25 95 -96 108 -87 191 -268 191 -418 0 -279
-191 -519 -468 -588 -147 -37 -341 -11 -483 64 -64 34 -91 37 -109 15 -25 -31
4 -63 93 -105 113 -53 184 -70 312 -77 189 -9 340 39 481 151 319 256 353 705
75 988 -76 77 -77 78 -128 78 -29 0 -55 -5 -59 -12z M2516 2729 c-14 -11 -26 -25 -26 -30 0 -5 42 -29 93 -54 131 -63 171
-105 201 -204 30 -102 -21 -221 -119 -280 -98 -58 -189 -66 -300 -25 -95 35
-119 39 -134 20 -25 -30 -2 -57 78 -94 72 -34 82 -36 181 -36 98 -1 110 1 172
31 146 69 213 172 213 328 -1 153 -64 244 -225 325 -92 46 -98 47 -134 19z M1554 1296 c-44 -19 -64 -53 -64 -105 0 -61 25 -84 122 -117 99 -32
120 -61 75 -100 -35 -30 -76 -31 -133 -3 -72 37 -103 -2 -37 -47 95 -64 241
-24 258 70 12 62 -34 108 -140 142 -47 15 -85 44 -85 65 0 5 9 18 20 29 27 27
83 26 127 -1 31 -20 36 -20 50 -6 53 52 -104 111 -193 73z M1955 1296 c-136 -61 -144 -314 -12 -383 48 -25 142 -19 189 12 95
63 108 260 22 336 -54 48 -138 62 -199 35z m126 -62 c96 -49 85 -238 -16 -273
-103 -35 -186 86 -140 205 28 74 92 102 156 68z M2315 1288 c-3 -8 -4 -97 -3 -198 l3 -185 27 -3 27 -3 3 127 c2 79 7
129 14 131 5 2 52 -55 103 -127 83 -118 95 -131 119 -128 l27 3 0 195 0 195
-27 3 -27 3 -3 -125 c-2 -70 -7 -127 -12 -129 -6 -1 -50 54 -98 123 -76 107
-93 125 -118 128 -19 2 -32 -2 -35 -10z M2857 1263 c-53 -122 -136 -346 -131 -354 3 -5 16 -9 30 -9 20 0 29
9 44 44 22 53 43 66 105 66 62 0 80 -12 100 -65 15 -39 22 -45 46 -45 41 0 38
13 -31 189 -80 204 -84 211 -119 211 -23 0 -31 -7 -44 -37z m77 -132 c21 -59
16 -71 -37 -71 -37 0 -42 19 -22 80 21 62 34 60 59 -9z M3170 1278 c0 -13 -1 -90 -1 -173 -2 -219 -4 -207 29 -203 26 3 27 5
32 73 l5 70 40 0 c39 0 41 -2 84 -72 34 -57 49 -73 67 -73 36 0 37 14 2 85
-23 46 -30 70 -23 79 45 61 50 73 49 120 0 43 -5 53 -37 82 l-37 34 -105 0
c-102 0 -105 -1 -105 -22z m180 -43 c34 -18 47 -56 32 -90 -13 -28 -41 -38
-103 -33 l-44 3 -3 54 c-2 29 -1 60 2 67 7 19 79 18 116 -1z" fill="#18c4fa"/>
</g>
</svg>
